<?xml version="1.0" standalone="no"?>
<!DOCTYPE svg PUBLIC "-//W3C//DTD SVG 20010904//EN"
 "http://www.w3.org/TR/2001/REC-SVG-20010904/DTD/svg10.dtd">
<svg version="1.0" xmlns="http://www.w3.org/2000/svg"
 width="260.000000pt" height="260.000000pt" viewBox="0 0 260.000000 260.000000"
 preserveAspectRatio="xMidYMid meet">
<metadata>
Created by potrace 1.11, written by Peter Selinger 2001-2013
</metadata>
<g transform="translate(0.000000,260.000000) scale(0.100000,-0.100000)"
fill="#000000" stroke="none">
<path d="M769 2216 l-524 -303 0 -613 0 -613 490 -284 c270 -156 506 -292 526
-303 l36 -19 524 303 524 303 0 613 0 613 -500 289 c-275 159 -512 296 -526
303 -25 13 -46 2 -550 -289z m471 -641 c0 -97 4 -155 10 -155 6 0 10 4 10 10
0 5 20 21 45 36 39 22 55 26 104 22 68 -5 110 -31 137 -85 16 -33 19 -67 22
-250 l3 -213 -55 0 -54 0 -4 194 c-3 179 -5 197 -24 223 -29 39 -76 51 -119
30 -64 -31 -70 -49 -73 -259 l-4 -188 -54 0 -54 0 0 395 0 395 55 0 55 0 0
-155z m-316 116 c52 -13 57 -19 44 -69 -9 -38 -14 -43 -32 -37 -42 14 -164 17
-201 5 -82 -27 -136 -101 -155 -211 -27 -156 37 -296 153 -335 49 -16 148 -16
204 1 19 6 22 2 30 -37 6 -28 6 -45 -1 -50 -6 -4 -42 -12 -80 -19 -173 -29
-316 30 -383 158 -97 183 -51 435 97 538 84 58 216 81 324 56z m1144 -220 c65
-33 98 -86 113 -184 18 -112 25 -107 -171 -107 -94 0 -170 -3 -170 -7 0 -34
26 -86 55 -112 44 -38 92 -47 175 -33 36 6 68 8 71 4 4 -4 9 -21 12 -39 6 -30
4 -33 -31 -45 -20 -7 -77 -12 -127 -12 -73 0 -98 4 -131 21 -94 50 -141 149
-131 278 12 159 102 254 240 255 37 0 71 -7 95 -19z"/>
<path d="M1906 1389 c-26 -21 -47 -54 -60 -96 -7 -23 -7 -23 114 -23 107 0
121 2 116 16 -3 9 -6 25 -6 36 0 11 -15 35 -34 54 -41 41 -89 46 -130 13z"/>
</g>
</svg>
